<svg fill="none" height="64" viewBox="0 0 65 64" width="65" xmlns="http://www.w3.org/2000/svg" xmlns:xlink="http://www.w3.org/1999/xlink"><clipPath id="a"><path d="m.621094 0h64v64h-64z"/></clipPath><g clip-path="url(#a)"><path d="m22 29.3333c0-2.9455 2.3878-5.3333 5.3333-5.3333h24.3334c2.9455 0 5.3333 2.3878 5.3333 5.3333v7.3334c0 2.9455-2.3878 5.3333-5.3333 5.3333h-24.3334c-2.9455 0-5.3333-2.3878-5.3333-5.3333z" fill="#e5e5e5"/><path d="m9 29.3333c0-2.9455 2.3878-5.3333 5.3333-5.3333h17.6667v18h-17.6667c-2.9455 0-5.3333-2.3878-5.3333-5.3333z" fill="#84d8ff"/><path d="m23 27.3333c0-2.3932 1.9401-4.3333 4.3333-4.3333h24.3334c2.3932 0 4.3333 1.9401 4.3333 4.3333v7.3334c0 2.3932-1.9401 4.3333-4.3333 4.3333h-24.3334c-2.3932 0-4.3333-1.9401-4.3333-4.3333z" fill="#fff" stroke="#e5e5e5" stroke-width="2"/><path d="m10 27.3333c0-2.3932 1.9401-4.3333 4.3333-4.3333h16.6667v16h-16.6667c-2.3932 0-4.3333-1.9401-4.3333-4.3333z" fill="#ddf4ff" stroke="#84d8ff" stroke-width="2"/><path d="m20 28.3333c0-2.9455 2.3878-5.3333 5.3333-5.3333h4.3334c2.9455 0 5.3333 2.3878 5.3333 5.3333v10.3334c0 2.9455-2.3878 5.3333-5.3333 5.3333h-4.3334c-2.9455 0-5.3333-2.3878-5.3333-5.3333z" fill="#1cb0f6"/><path d="m21 26.3333c0-2.3932 1.9401-4.3333 4.3333-4.3333h4.3334c2.3932 0 4.3333 1.9401 4.3333 4.3333v9.3334c0 2.3932-1.9401 4.3333-4.3333 4.3333h-4.3334c-2.3932 0-4.3333-1.9401-4.3333-4.3333z" fill="#fff" stroke="#1cb0f6" stroke-width="2"/><path d="m44.5 22.5h1v17h-1z" fill="#1cb0f6" stroke="#e5e5e5"/></g></svg>