<svg width="64" height="64" viewBox="0 0 64 64" fill="none" xmlns="http://www.w3.org/2000/svg"><path d="M21.8999 18C26.829 18 30.8246 21.9958 30.8247 26.9248V28.1152C30.8246 31.3584 29.0943 34.196 26.5067 35.7583C25.8994 36.125 25.4702 36.7534 25.4702 37.4628V42.0977C23.09 42.0977 20.7098 42.0977 18.3296 42.0977V37.4628C18.3296 36.7534 17.9004 36.125 17.2931 35.7583C14.7057 34.1959 12.9752 31.3583 12.9751 28.1152V26.9248C12.9752 21.9958 16.9709 18.0001 21.8999 18Z" fill="#1CB0F6"/><path d="M25.47 38.1566C28.7537 39.0346 31.5617 41.0766 33.425 43.8135C34.1458 44.8723 33.2984 46.1823 32.0175 46.1823H11.6718C10.3909 46.1823 9.54352 44.8723 10.2643 43.8135C12.1485 41.0459 14.9987 38.9888 18.33 38.1274L25.47 38.1566Z" fill="#1CB0F6"/><mask id="path-3-inside-1_964_8106" fill="white"><path d="M41.8057 19C39.4861 19 37.6055 20.8806 37.6055 23.2002V25.54L33.4688 29.5635C31.9246 31.0655 32.9884 33.6836 35.1426 33.6836H37.6992C38.1051 35.5788 39.7892 37 41.8057 37H55.4053C57.7249 37 59.6055 35.1194 59.6055 32.7998V23.2002C59.6055 20.8806 57.7249 19 55.4053 19H41.8057Z"/></mask><path d="M41.8057 19C39.4861 19 37.6055 20.8806 37.6055 23.2002V25.54L33.4688 29.5635C31.9246 31.0655 32.9884 33.6836 35.1426 33.6836H37.6992C38.1051 35.5788 39.7892 37 41.8057 37H55.4053C57.7249 37 59.6055 35.1194 59.6055 32.7998V23.2002C59.6055 20.8806 57.7249 19 55.4053 19H41.8057Z" fill="white"/><path d="M37.6055 25.54H39.2055V26.2158L38.721 26.687L37.6055 25.54ZM33.4688 29.5635L32.3531 28.4166L32.3532 28.4165L33.4688 29.5635ZM37.6992 33.6836V32.0836H38.9929L39.2637 33.3486L37.6992 33.6836ZM41.8057 19V20.6C40.3697 20.6 39.2055 21.7643 39.2055 23.2002H37.6055H36.0055C36.0055 19.9969 38.6024 17.4 41.8057 17.4V19ZM37.6055 23.2002H39.2055V25.54H37.6055H36.0055V23.2002H37.6055ZM37.6055 25.54L38.721 26.687L34.5843 30.7104L33.4688 29.5635L32.3532 28.4165L36.4899 24.3931L37.6055 25.54ZM33.4688 29.5635L34.5844 30.7104C34.0702 31.2106 34.4238 32.0836 35.1426 32.0836V33.6836V35.2836C31.553 35.2836 29.779 30.9205 32.3531 28.4166L33.4688 29.5635ZM35.1426 33.6836V32.0836H37.6992V33.6836V35.2836H35.1426V33.6836ZM37.6992 33.6836L39.2637 33.3486C39.515 34.5216 40.5596 35.4 41.8057 35.4V37V38.6C39.0188 38.6 36.6952 36.6361 36.1347 34.0186L37.6992 33.6836ZM41.8057 37V35.4H55.4053V37V38.6H41.8057V37ZM55.4053 37V35.4C56.8412 35.4 58.0055 34.2357 58.0055 32.7998H59.6055H61.2055C61.2055 36.0031 58.6085 38.6 55.4053 38.6V37ZM59.6055 32.7998H58.0055V23.2002H59.6055H61.2055V32.7998H59.6055ZM59.6055 23.2002H58.0055C58.0055 21.7643 56.8412 20.6 55.4053 20.6V19V17.4C58.6085 17.4 61.2055 19.9969 61.2055 23.2002H59.6055ZM55.4053 19V20.6H41.8057V19V17.4H55.4053V19Z" fill="#E5E5E5" mask="url(#path-3-inside-1_964_8106)"/><path d="M54.5 28C54.5 26.8954 53.6046 26 52.5 26H44.5C43.3954 26 42.5 26.8954 42.5 28C42.5 29.1046 43.3954 30 44.5 30H52.5C53.6046 30 54.5 29.1046 54.5 28Z" fill="#84D8FF"/></svg>