<svg fill="none" height="64" viewBox="0 0 64 64" width="64" xmlns="http://www.w3.org/2000/svg" xmlns:xlink="http://www.w3.org/1999/xlink"><clipPath id="a"><path d="m0 0h64v64h-64z"/></clipPath><g clip-path="url(#a)"><path d="m9 14c0-2.7614 2.2386-5 5-5h32c2.7614 0 5 2.2386 5 5v32c0 2.7614-2.2386 5-5 5h-32c-2.7614 0-5-2.2386-5-5z" fill="#fff" stroke="#e5e5e5" stroke-width="2"/><path d="m17.3332 38.9334c0-1.3255 1.0745-2.4 2.4-2.4s2.4 1.0745 2.4 2.4-1.0745 2.4-2.4 2.4-2.4-1.0745-2.4-2.4z" fill="#fff" stroke="#1cb0f6" stroke-width="1.6"/><path d="m24.5332 38.9333c0-.8837.7163-1.6 1.6-1.6h9.6c.8837 0 1.6.7163 1.6 1.6 0 .8836-.7163 1.6-1.6 1.6h-9.6c-.8837 0-1.6-.7164-1.6-1.6z" fill="#e5e5e5"/><path d="m16 20c0-2.2091 1.7909-4 4-4h20c2.2091 0 4 1.7909 4 4v8c0 2.2091-1.7909 4-4 4h-20c-2.2091 0-4-1.7909-4-4z" fill="#1cb0f6"/><path clip-rule="evenodd" d="m25.6742 26.6335h-.9242c-.9665 0-1.75-.7292-1.75-1.6288v-1.9564c0-.8996.7835-1.6289 1.75-1.6289h.8453l3.4578-2.3218c.3635-.2441.8712-.0023.8712.4148v8.9752c0 .4171-.5077.6589-.8712.4148zm6.0072-4.8115c.1467-.267.4981-.3728.7849-.2363.9085.4322 1.5289 1.3182 1.5289 2.3378 0 1.0223-.6237 1.9102-1.5361 2.3412-.2873.1357-.6384.029-.7842-.2384s-.0311-.5942.2562-.7299c.5306-.2506.8975-.7699.8975-1.3729 0-.6015-.365-1.1196-.8933-1.371-.2869-.1365-.4005-.4636-.2539-.7305zm2.2116-2.6545c-.2869-.1365-.6383-.0307-.785.2363-.1466.2669-.033.594.2539.7305 1.4645.6968 2.4714 2.1297 2.4714 3.7874 0 1.662-1.0123 3.0981-2.4831 3.7928-.2873.1357-.402.4625-.2562.7299s.4969.3742.7842.2385c1.8527-.8751 3.1218-2.6799 3.1218-4.7612 0-2.0758-1.2624-3.8766-3.107-4.7542z" fill="#fff" fill-rule="evenodd"/><path d="m54 38h-13c-1.6569 0-3 1.3431-3 3v13c0 1.6569 1.3431 3 3 3h13c1.6569 0 3-1.3431 3-3v-13c0-1.6569-1.3431-3-3-3z" fill="#1cb0f6" stroke="#fff" stroke-width="2"/><path d="m43.2269 44.1139c-.1367-.4632.2939-.8938.7571-.7571l8.6468 2.5511c.5781.1706.5843.9872.0088 1.1665l-4.3421 1.353-1.353 4.3421c-.1793.5755-.9959.5693-1.1665-.0088z" fill="#fff"/></g></svg>