<svg fill="none" height="64" viewBox="0 0 64 64" width="64" xmlns="http://www.w3.org/2000/svg" xmlns:xlink="http://www.w3.org/1999/xlink"><clipPath id="a"><path d="m0 0h64v64h-64z"/></clipPath><g clip-path="url(#a)"><path d="m9 14c0-2.7614 2.2386-5 5-5h32c2.7614 0 5 2.2386 5 5v32c0 2.7614-2.2386 5-5 5h-32c-2.7614 0-5-2.2386-5-5z" fill="#fff" stroke="#e5e5e5" stroke-width="2"/><path d="m16 39c0-1.6569 1.3431-3 3-3s3 1.3431 3 3-1.3431 3-3 3-3-1.3431-3-3z" fill="#1cb0f6"/><path d="m24 39c0-1.1046.8954-2 2-2h8c1.1046 0 2 .8954 2 2s-.8954 2-2 2h-8c-1.1046 0-2-.8954-2-2z" fill="#e5e5e5"/><path d="m16 22c0 1.1046.8954 2 2 2h24c1.1046 0 2-.8954 2-2s-.8954-2-2-2h-24c-1.1046 0-2 .8954-2 2z" fill="#84d8ff"/><path d="m54 38h-13c-1.6569 0-3 1.3431-3 3v13c0 1.6569 1.3431 3 3 3h13c1.6569 0 3-1.3431 3-3v-13c0-1.6569-1.3431-3-3-3z" fill="#1cb0f6" stroke="#fff" stroke-width="2"/><path d="m43.2269 44.1139c-.1367-.4632.2939-.8938.7571-.7571l8.6468 2.5511c.5781.1706.5843.9872.0088 1.1665l-4.3421 1.353-1.353 4.3421c-.1793.5755-.9959.5693-1.1665-.0088z" fill="#fff"/></g></svg>