<svg width="160" height="160" viewBox="0 0 160 160" fill="none" xmlns="http://www.w3.org/2000/svg"><path d="M35 22.5L115 22.5C121.904 22.5 127.5 28.0964 127.5 35L127.5 115C127.5 121.904 121.904 127.5 115 127.5L35 127.5C28.0964 127.5 22.5 121.904 22.5 115L22.5 35C22.5 28.0964 28.0964 22.5 35 22.5Z" fill="white" stroke="#E5E5E5" stroke-width="5"/><path d="M37.5 52.5C37.5 55.2614 39.7386 57.5 42.5 57.5H107.5C110.261 57.5 112.5 55.2614 112.5 52.5C112.5 49.7386 110.261 47.5 107.5 47.5H42.5C39.7386 47.5 37.5 49.7386 37.5 52.5Z" fill="#84D8FF"/><path d="M37.5 75C37.5 72.2386 39.7386 70 42.5 70H50C52.7614 70 55 72.2386 55 75C55 77.7614 52.7614 80 50 80H42.5C39.7386 80 37.5 77.7614 37.5 75Z" fill="#E5E5E5"/><path d="M60 75C60 72.2386 62.2386 70 65 70H87.5C90.2614 70 92.5 72.2386 92.5 75C92.5 77.7614 90.2614 80 87.5 80H65C62.2386 80 60 77.7614 60 75Z" fill="#E5E5E5"/><rect x="97.5" y="70" width="15" height="10" rx="5" fill="#E5E5E5"/><path d="M37.5 97.5C37.5 94.7386 39.7386 92.5 42.5 92.5H70V102.5H42.5C39.7386 102.5 37.5 100.261 37.5 97.5Z" fill="#E5E5E5"/><rect x="67.5024" y="87.5" width="5" height="20" rx="2.5" fill="#1CB0F6"/><path d="M134.999 94.9998C139.141 94.9998 142.499 98.3576 142.499 102.5L142.499 135C142.499 139.142 139.141 142.5 134.999 142.5L102.499 142.5C98.3569 142.5 94.999 139.142 94.999 135L94.999 102.5C94.999 98.3576 98.3569 94.9998 102.499 94.9998L134.999 94.9998Z" fill="#1CB0F6" stroke="white" stroke-width="5"/><path d="M108.064 109.947C107.722 108.789 108.799 107.712 109.957 108.054L131.574 114.432C133.019 114.858 133.034 116.9 131.596 117.348L120.74 120.73L117.358 131.586C116.91 133.024 114.868 133.009 114.442 131.564L108.064 109.947Z" fill="white"/></svg>