<svg fill="none" height="64" viewBox="0 0 64 64" width="64" xmlns="http://www.w3.org/2000/svg" xmlns:xlink="http://www.w3.org/1999/xlink"><clipPath id="a"><path d="m0 0h64v64h-64z"/></clipPath><g clip-path="url(#a)"><path d="m9 14c0-2.7614 2.2386-5 5-5h32c2.7614 0 5 2.2386 5 5v32c0 2.7614-2.2386 5-5 5h-32c-2.7614 0-5-2.2386-5-5z" fill="#fff" stroke="#e5e5e5" stroke-width="2"/><path clip-rule="evenodd" d="m22.5843 34.2642h-1.5843c-1.6568 0-3-1.3432-3-3v-3.6034c0-1.6569 1.3432-3 3-3h1.4491l5.9277-4.2765c.6231-.4495 1.4934-.0042 1.4934.7641v16.5306c0 .7683-.8703 1.2136-1.4934.764zm10.2981-8.8621c.2514-.4917.8538-.6866 1.3456-.4352 1.5574.7961 2.621 2.4279 2.621 4.3058 0 1.8829-1.0693 3.5184-2.6335 4.3122-.4925.25-1.0943.0533-1.3443-.4392-.2499-.4925-.0533-1.0943.4392-1.3443.9096-.4616 1.5386-1.4179 1.5386-2.5287 0-1.1077-.6256-2.062-1.5314-2.525-.4917-.2514-.6866-.8538-.4352-1.3456zm3.7912-4.8891c-.4917-.2514-1.0942-.0565-1.3456.4352-.2513.4918-.0565 1.0942.4353 1.3456 2.5105 1.2834 4.2367 3.9226 4.2367 6.9756 0 3.0612-1.7354 5.7062-4.2568 6.9858-.4925.2499-.6891.8518-.4392 1.3443.25.4925.8518.6891 1.3443.4392 3.176-1.6118 5.3517-4.9359 5.3517-8.7693 0-3.8232-2.1642-7.1398-5.3264-8.7564z" fill="#1cb0f6" fill-rule="evenodd"/><path d="m54 38h-13c-1.6569 0-3 1.3431-3 3v13c0 1.6569 1.3431 3 3 3h13c1.6569 0 3-1.3431 3-3v-13c0-1.6569-1.3431-3-3-3z" fill="#1cb0f6" stroke="#fff" stroke-width="2"/><g fill="#fff"><path d="m52.7602 44.9295c.4166-.4166.4166-1.0919 0-1.5085l-1.5085-1.5085c-.4165-.4165-1.0919-.4165-1.5084 0l-1.1314 1.1314 3.017 3.017z"/><path d="m50.4975 47.192-3.017-3.017-5.2469 5.2469-.6226 3.0093c-.0777.3756.2547.708.6303.6303l3.0093-.6226z"/></g></g></svg>