<svg fill="none" height="64" viewBox="0 0 64 64" width="64" xmlns="http://www.w3.org/2000/svg" xmlns:xlink="http://www.w3.org/1999/xlink"><clipPath id="a"><path d="m0 0h64v64h-64z"/></clipPath><g clip-path="url(#a)"><path d="m11 16c0-2.7614 2.2386-5 5-5h32c2.7614 0 5 2.2386 5 5v32c0 2.7614-2.2386 5-5 5h-32c-2.7614 0-5-2.2386-5-5z" fill="#fff" stroke="#e5e5e5" stroke-width="2"/><rect fill="#e5e5e5" height="4" rx="2" width="32" x="16" y="19"/><rect fill="#ddf4ff" height="6.66667" rx="2.33333" stroke="#fff" stroke-width="2.66667" transform="matrix(-1 0 0 1 39.6667 19)" width="12.6667" x="1.33333" y="-1.33333"/><rect fill="#ddf4ff" height="5.25" rx="1.625" stroke="#1cb0f6" stroke-width="1.25" transform="matrix(-1 0 0 1 38.25 19)" width="11.25" x=".625" y="-.625"/><rect fill="#e5e5e5" height="4" rx="2" width="32" x="16" y="29"/><rect fill="#ddf4ff" height="6.66667" rx="2.33333" stroke="#fff" stroke-width="2.66667" transform="matrix(-1 0 0 1 50.6667 29)" width="10.6667" x="1.33333" y="-1.33333"/><rect fill="#ddf4ff" height="5.25" rx="1.625" stroke="#1cb0f6" stroke-width="1.25" transform="matrix(-1 0 0 1 49.25 29)" width="9.25" x=".625" y="-.625"/><rect fill="#e5e5e5" height="4" rx="2" width="24" x="16" y="39"/><g fill="#ddf4ff"><rect height="6.66667" rx="2.33333" stroke="#fff" stroke-width="2.66667" width="12.6667" x="14.6667" y="37.6667"/><rect height="5.25" rx="1.625" stroke="#1cb0f6" stroke-width="1.25" width="11.25" x="15.375" y="38.375"/></g></g></svg>