<svg fill="none" height="64" viewBox="0 0 64 64" width="64" xmlns="http://www.w3.org/2000/svg" xmlns:xlink="http://www.w3.org/1999/xlink"><clipPath id="a"><path d="m0 0h64v64h-64z"/></clipPath><g clip-path="url(#a)"><rect fill="#84d8ff" height="26" rx="5.33333" transform="matrix(.98480775 -.17364818 .17364818 .98480775 -2.233273 1.05797)" width="24" x="4.92969" y="13.2922"/><rect fill="#ddf4ff" height="22" rx="4.33333" stroke="#84d8ff" stroke-width="2" transform="matrix(.98480775 -.17364818 .17364818 .98480775 -2.344112 1.290875)" width="22" x="6.20533" y="14.0421"/><path clip-rule="evenodd" d="m24.5743 17.8847c.6222.4315.7723 1.2827.3352 1.901l-5.2905 7.4846c-.6403.9059-1.8985 1.1278-2.8101.4955l-3.9418-2.7341c-.6222-.4316-.7723-1.2827-.3352-1.901.4371-.6184 1.2958-.7698 1.918-.3382l3.3392 2.3161 4.8672-6.8857c.4371-.6184 1.2958-.7698 1.918-.3382z" fill="#1cb0f6" fill-rule="evenodd"/><rect fill="#e5e5e5" height="26" rx="5.33333" transform="matrix(.98480775 .17364818 -.17364818 .98480775 5.075051 -5.7571)" width="24" x="35.4395" y="26.1255"/><rect fill="#fff" height="22" rx="4.33333" stroke="#e5e5e5" stroke-width="2" transform="matrix(.98480775 .17364818 -.17364818 .98480775 5.327236 -5.845184)" width="22" x="36.069" y="27.5227"/><path d="m42.435 34.3217c-.437-.6243-1.2974-.776-1.9216-.3389-.6243.4371-.776 1.2975-.3389 1.9217l2.77 3.9559-3.9559 2.77c-.6243.437-.776 1.2974-.3389 1.9216.4371.6243 1.2975.776 1.9217.3389l3.9559-2.77 2.77 3.9559c.4371.6243 1.2975.776 1.9217.3389s.7759-1.2975.3388-1.9217l-2.7699-3.9559 3.9559-2.77c.6242-.437.7759-1.2974.3388-1.9216-.4371-.6243-1.2974-.776-1.9217-.3389l-3.9559 2.77z" fill="#1cb0f6"/></g></svg>