<svg fill="none" height="64" viewBox="0 0 64 64" width="64" xmlns="http://www.w3.org/2000/svg" xmlns:xlink="http://www.w3.org/1999/xlink"><clipPath id="a"><path d="m0 0h64v64h-64z"/></clipPath><g clip-path="url(#a)"><path d="m46.6977 16.4954c2.192 0 3.969 1.7769 3.969 3.969v17.9411c0 2.192-1.777 3.969-3.969 3.969h-10.111c-1.0322 0-1.9296.0994-2.6725.2345-.9211.1676-1.7221.8026-2.4656 1.5638-1.2137 1.2427-3.0412 1.238-4.3195.0619-.8891-.8181-1.8462-1.4934-2.8339-1.6509-.7117-.1135-1.5434-.1934-2.4743-.1934h-9.8519c-2.19202 0-3.969-1.777-3.969-3.969v-17.957c0-2.1921 1.77698-3.969 3.969-3.969h10.3243c2.9838 0 5.7995 1.9924 7.0283 4.8856 1.268-2.8931 3.6963-4.8856 6.7775-4.8856z" fill="#1cb0f6"/><path d="m45.6326 13.8667c1.096 0 1.9845.8885 1.9845 1.9845v21.2431c0 1.096-.8885 1.9845-1.9845 1.9845h-9.0443c-1.0322 0-1.9296.0994-2.6725.2345-1.3897.2527-2.506 1.0344-3.5642 1.9796-.5803.5183-1.4607.5013-2.055-.001-1.192-1.0075-2.5634-1.7748-3.9998-2.0039-.7117-.1135-1.5433-.1934-2.4742-.1934h-8.7854c-1.096 0-1.9845-.8885-1.9845-1.9845v-21.2589c0-1.096.8885-1.9845 1.9845-1.9845h9.2577c2.9839 0 5.7995 1.9924 7.0284 4.8857 1.2679-2.8931 3.6963-4.8857 6.7774-4.8857z" fill="#ddf4ff"/><path clip-rule="evenodd" d="m28.3049 41.2989v-24.3032c.4055.5349.7499 1.1243 1.0185 1.7567.2745-.6263.6034-1.2104.9815-1.7413v24.322c-.5772.4747-1.4217.4481-2-.0342z" fill="#84d8ff" fill-rule="evenodd"/><path d="m54 33h-13c-1.6569 0-3 1.3431-3 3v13c0 1.6569 1.3431 3 3 3h13c1.6569 0 3-1.3431 3-3v-13c0-1.6569-1.3431-3-3-3z" fill="#1cb0f6" stroke="#fff" stroke-width="2"/><path clip-rule="evenodd" d="m44.6826 38.5774c0-1.2762 1.0345-2.3108 2.3108-2.3108h.573c1.2762 0 2.3108 1.0346 2.3108 2.3108v3.2244c0 1.2762-1.0346 2.3108-2.3108 2.3108h-.573c-1.2763 0-2.3108-1.0346-2.3108-2.3108zm6.6289 3.7957c.3191 0 .5777.2587.5777.5777 0 2.0449-1.6601 3.7009-3.7059 3.7009h-.3392v1.2594h.5394c.319 0 .5777.2587.5777.5777 0 .3191-.2587.5778-.5777.5778h-2.1392c-.3191 0-.5777-.2587-.5777-.5778 0-.319.2586-.5777.5777-.5777h.4444v-1.2594h-.3892c-2.0048 0-3.6315-1.6228-3.6315-3.6266 0-.3191.2586-.5777.5777-.5777.319 0 .5777.2586.5777.5777 0 1.3639 1.1077 2.4712 2.4761 2.4712h1.8838c1.4095 0 2.5505-1.1405 2.5505-2.5455 0-.319.2586-.5777.5777-.5777z" fill="#fff" fill-rule="evenodd"/></g></svg>