<svg fill="none" height="64" viewBox="0 0 64 64" width="64" xmlns="http://www.w3.org/2000/svg" xmlns:xlink="http://www.w3.org/1999/xlink"><clipPath id="a"><path d="m0 0h64v64h-64z"/></clipPath><g clip-path="url(#a)"><path d="m9 37.6536c0 1.9795 1.3414 3.7073 3.2591 4.198l14.0645 3.5991c.6281.1607 1.2842.1784 1.9201.0519l19.2688-3.8351c2.0274-.4035 3.4875-2.1828 3.4875-4.25v-24.0842c0-2.3932-1.9401-4.33331-4.3333-4.33331h-33.3334c-2.3932 0-4.3333 1.94011-4.3333 4.33331z" fill="#fff" stroke="#e5e5e5" stroke-width="2"/><ellipse cx="26.7008" cy="19.4403" fill="#84d8ff" rx="4.4" ry="4.4"/><path d="m52 31.6501-6.3925-4.542c-1.9491-1.385-2.9237-2.0774-4.0206-2.0299-1.0968.0474-2.0079.8215-3.8301 2.3697l-8.5684 7.2797c-.9299.79-1.3948 1.185-1.9529 1.2033-.5581.0182-1.0478-.3456-2.0273-1.0732l-3.7667-2.7981c-1.8387-1.3658-2.758-2.0488-3.8165-2.0488s-1.9778.683-3.8165 2.0488l-5.8085 4.3149v7.0922c0 4.0227 0 6.034 1.24968 7.2837 1.24972 1.2496 3.26102 1.2496 7.28362 1.2496h26.9334c4.0226 0 6.0339 0 7.2836-1.2496 1.2497-1.2497 1.2497-3.261 1.2497-7.2837z" fill="#84d8ff"/><path d="m54 38h-13c-1.6569 0-3 1.3431-3 3v13c0 1.6569 1.3431 3 3 3h13c1.6569 0 3-1.3431 3-3v-13c0-1.6569-1.3431-3-3-3z" fill="#1cb0f6" stroke="#fff" stroke-width="2"/><path clip-rule="evenodd" d="m44.6826 43.3775c0-1.2763 1.0345-2.3108 2.3108-2.3108h.573c1.2762 0 2.3108 1.0345 2.3108 2.3108v3.2243c0 1.2763-1.0346 2.3109-2.3108 2.3109h-.573c-1.2763 0-2.3108-1.0346-2.3108-2.3109zm6.6289 3.7957c.3191 0 .5777.2586.5777.5777 0 2.0448-1.6601 3.7009-3.7059 3.7009h-.3392v1.2594h.5394c.319 0 .5777.2586.5777.5777s-.2587.5777-.5777.5777h-2.1392c-.3191 0-.5777-.2586-.5777-.5777s.2586-.5777.5777-.5777h.4444v-1.2594h-.3892c-2.0048 0-3.6315-1.6228-3.6315-3.6267 0-.319.2586-.5777.5777-.5777.319 0 .5777.2587.5777.5777 0 1.364 1.1077 2.4713 2.4761 2.4713h1.8838c1.4095 0 2.5505-1.1406 2.5505-2.5455 0-.3191.2586-.5777.5777-.5777z" fill="#fff" fill-rule="evenodd"/></g></svg>