<svg fill="none" height="64" viewBox="0 0 64 64" width="64" xmlns="http://www.w3.org/2000/svg" xmlns:xlink="http://www.w3.org/1999/xlink"><clipPath id="a"><path d="m0 0h64v64h-64z"/></clipPath><mask id="b" fill="#fff"><path clip-rule="evenodd" d="m13.3333 10c-2.9455 0-5.3333 2.3878-5.3333 5.3333v33.3334c0 2.9455 2.3878 5.3333 5.3333 5.3333h33.3334c2.7663 0 5.0407-2.1061 5.3072-4.8023h3.9266c2.9688 0 4.3373-3.6918 2.0858-5.6269l-5.9863-5.1449v-23.0926c0-2.9455-2.3878-5.3333-5.3333-5.3333z" fill="#fff" fill-rule="evenodd"/></mask><g clip-path="url(#a)"><path clip-rule="evenodd" d="m13.3333 10c-2.9455 0-5.3333 2.3878-5.3333 5.3333v33.3334c0 2.9455 2.3878 5.3333 5.3333 5.3333h33.3334c2.7663 0 5.0407-2.1061 5.3072-4.8023h3.9266c2.9688 0 4.3373-3.6918 2.0858-5.6269l-5.9863-5.1449v-23.0926c0-2.9455-2.3878-5.3333-5.3333-5.3333z" fill="#fff" fill-rule="evenodd"/><path d="m51.9739 49.1977v-2h-1.8121l-.1782 1.8032zm6.0124-5.6269-1.3036 1.5168zm-5.9863-5.1449h-2v.9182l.6964.5986zm-42-23.0926c0-1.8409 1.4924-3.3333 3.3333-3.3333v-4c-4.05005 0-7.3333 3.2832-7.3333 7.3333zm0 33.3334v-33.3334h-4v33.3334zm3.3333 3.3333c-1.8409 0-3.3333-1.4924-3.3333-3.3333h-4c0 4.0501 3.28324 7.3333 7.3333 7.3333zm33.3334 0h-33.3334v4h33.3334zm3.3169-2.9991c-.1664 1.683-1.5892 2.9991-3.3169 2.9991v4c3.8049 0 6.9309-2.8962 7.2975-6.6056zm5.9169-1.8032h-3.9266v4h3.9266zm.7822-2.1101c.8443.7256.3311 2.1101-.7822 2.1101v4c4.8243 0 7.0481-5.9992 3.3894-9.1437zm-5.9863-5.1449 5.9863 5.1449 2.6072-3.0336-5.9863-5.1449zm-.6964-24.6094v23.0926h4v-23.0926zm-3.3333-3.3333c1.8409 0 3.3333 1.4924 3.3333 3.3333h4c0-4.0501-3.2832-7.3333-7.3333-7.3333zm-33.3334 0h33.3334v-4h-33.3334z" fill="#e5e5e5" mask="url(#b)"/><path clip-rule="evenodd" d="m24.7773 24.3328c0-2.3929 1.9399-4.3328 4.3328-4.3328h1.0744c2.393 0 4.3328 1.9399 4.3328 4.3328v6.0457c0 2.3929-1.9398 4.3328-4.3328 4.3328h-1.0744c-2.3929 0-4.3328-1.9399-4.3328-4.3328zm12.4293 7.117c.5983 0 1.0832.4849 1.0832 1.0832 0 3.834-3.1126 6.9392-6.9486 6.9392h-.6359v2.3614h1.0113c.5982 0 1.0832.4849 1.0832 1.0832 0 .5982-.485 1.0832-1.0832 1.0832h-4.0111c-.5982 0-1.0832-.485-1.0832-1.0832 0-.5983.485-1.0832 1.0832-1.0832h.8334v-2.3614h-.7298c-3.7589 0-6.8091-3.0428-6.8091-6.8 0-.5982.485-1.0832 1.0832-1.0832s1.0832.485 1.0832 1.0832c0 2.5574 2.077 4.6336 4.6427 4.6336h3.5321c2.6428 0 4.7822-2.1385 4.7822-4.7728 0-.5983.485-1.0832 1.0832-1.0832z" fill="#1cb0f6" fill-rule="evenodd"/></g></svg>