<svg fill="none" height="64" viewBox="0 0 64 64" width="64" xmlns="http://www.w3.org/2000/svg" xmlns:xlink="http://www.w3.org/1999/xlink"><clipPath id="a"><path d="m0 0h64v64h-64z"/></clipPath><g clip-path="url(#a)"><path d="m12 17c0-2.7614 2.2386-5 5-5h32c2.7614 0 5 2.2386 5 5v32c0 2.7614-2.2386 5-5 5h-32c-2.7614 0-5-2.2386-5-5z" fill="#fff" stroke="#e5e5e5" stroke-width="2"/><g fill="#84d8ff"><path d="m17 27c0-1.1046.8954-2 2-2h4c1.1046 0 2 .8954 2 2s-.8954 2-2 2h-4c-1.1046 0-2-.8954-2-2z"/><path d="m27 27.0002c0-1.1045.8954-2 2-2h10c1.1046 0 2 .8955 2 2 0 1.1046-.8954 2-2 2h-10c-1.1046 0-2-.8954-2-2z"/><rect height="4" rx="2" width="6" x="43" y="25"/><rect height="4" rx="2" width="6" x="17" y="34"/><path d="m25 36c0-1.1046.8954-2 2-2h11v4h-11c-1.1046 0-2-.8954-2-2z"/></g><rect fill="#1cb0f6" height="8" rx="1" width="2" x="37" y="32"/></g></svg>