<svg fill="none" height="64" viewBox="0 0 64 64" width="64" xmlns="http://www.w3.org/2000/svg" xmlns:xlink="http://www.w3.org/1999/xlink"><clipPath id="a"><path d="m0 0h64v64h-64z"/></clipPath><g clip-path="url(#a)"><path d="m9 37.136c0 2.2841 1.5477 4.2777 3.7605 4.844l13.4163 3.4331c.7247.1855 1.4818.2059 2.2155.0599l18.5837-3.6987c2.3393-.4656 4.024-2.5187 4.024-4.9038v-22.8705c0-2.7614-2.2386-5.00001-5-5.00001h-32c-2.7614 0-5 2.23861-5 5.00001z" fill="#fff" stroke="#e5e5e5" stroke-width="2"/><ellipse cx="26.7008" cy="19.4403" fill="#84d8ff" rx="4.4" ry="4.4"/><path d="m52 31.6501-6.3925-4.542c-1.9491-1.385-2.9237-2.0774-4.0206-2.0299-1.0968.0474-2.0079.8215-3.8301 2.3697l-8.5684 7.2797c-.9299.79-1.3948 1.185-1.9529 1.2033-.5581.0182-1.0478-.3456-2.0273-1.0732l-3.7667-2.7981c-1.8387-1.3658-2.758-2.0488-3.8165-2.0488s-1.9778.683-3.8165 2.0488l-5.8085 4.3149v7.0922c0 4.0227 0 6.034 1.24968 7.2837 1.24972 1.2496 3.26102 1.2496 7.28362 1.2496h26.9334c4.0226 0 6.0339 0 7.2836-1.2496 1.2497-1.2497 1.2497-3.261 1.2497-7.2837z" fill="#84d8ff"/><path d="m54 38h-13c-1.6569 0-3 1.3431-3 3v13c0 1.6569 1.3431 3 3 3h13c1.6569 0 3-1.3431 3-3v-13c0-1.6569-1.3431-3-3-3z" fill="#1cb0f6" stroke="#fff" stroke-width="2"/><g fill="#fff"><path d="m52.7602 44.9295c.4166-.4166.4166-1.0919 0-1.5085l-1.5085-1.5085c-.4165-.4165-1.0919-.4165-1.5084 0l-1.1314 1.1314 3.017 3.017z"/><path d="m50.4975 47.192-3.017-3.017-5.2469 5.2469-.6226 3.0093c-.0777.3756.2547.708.6303.6303l3.0093-.6226z"/></g></g></svg>